<svg width="20" height="20" viewBox="0 0 20 20" fill="none" xmlns="http://www.w3.org/2000/svg">
<circle cx="10" cy="10" r="10" fill="black"/>
<path d="M10.9928 7.792V16H9.00875V7.792H10.9928ZM11.2648 5.4C11.2648 5.57067 11.2301 5.73067 11.1608 5.88C11.0914 6.02933 10.9981 6.16 10.8808 6.272C10.7688 6.384 10.6354 6.47467 10.4808 6.544C10.3261 6.608 10.1608 6.64 9.98475 6.64C9.81408 6.64 9.65142 6.608 9.49675 6.544C9.34742 6.47467 9.21675 6.384 9.10475 6.272C8.99275 6.16 8.90208 6.02933 8.83275 5.88C8.76875 5.73067 8.73675 5.57067 8.73675 5.4C8.73675 5.224 8.76875 5.05867 8.83275 4.904C8.90208 4.74933 8.99275 4.616 9.10475 4.504C9.21675 4.392 9.34742 4.304 9.49675 4.24C9.65142 4.17067 9.81408 4.136 9.98475 4.136C10.1608 4.136 10.3261 4.17067 10.4808 4.24C10.6354 4.304 10.7688 4.392 10.8808 4.504C10.9981 4.616 11.0914 4.74933 11.1608 4.904C11.2301 5.05867 11.2648 5.224 11.2648 5.4Z" fill="white"/>
</svg>
