<svg width="24" height="24" viewBox="0 0 24 24" fill="none" xmlns="http://www.w3.org/2000/svg">
<path d="M14.7675 12L23.7812 21.0137C23.9234 21.1996 23.9891 21.4075 23.9891 21.6372C23.9891 21.8669 23.9234 22.0529 23.7812 22.1951L22.1841 23.7922C22.0419 23.9344 21.856 24 21.6263 24C21.3965 24 21.1887 23.9344 21.0027 23.7922L11.9891 14.7785L2.97539 23.7922C2.78943 23.9344 2.58159 24 2.35187 24C2.12215 24 1.93619 23.9344 1.79398 23.7922L0.196901 22.1951C0.0656336 22.0529 0 21.8669 0 21.6372C0 21.4075 0.0656336 21.1996 0.20784 21.0137L9.22151 12L0.20784 2.98633C0.0656336 2.80036 0 2.59253 0 2.36281C0 2.13309 0.0656336 1.94713 0.20784 1.80492L1.80492 0.20784C1.94713 0.0656336 2.12215 0 2.36281 0C2.60346 0 2.80036 0.0656336 2.98633 0.20784L12 9.22151L21.0137 0.20784C21.1996 0.0656336 21.4075 0 21.6372 0C21.8669 0 22.0529 0.0656336 22.1951 0.20784L23.7922 1.80492C23.9344 1.94713 24 2.13309 24 2.36281C24 2.59253 23.9344 2.80036 23.7922 2.98633L14.7675 12Z" fill="#696969"/>
</svg>
