<svg width="16" height="16" viewBox="0 0 16 16" fill="none" xmlns="http://www.w3.org/2000/svg">
<path d="M15.8915 4.68643C15.9657 4.78001 16 4.88459 16 5.00018C16 5.11577 15.9657 5.20934 15.8915 5.28089L8.32548 12.6071C8.22841 12.6786 8.11992 12.7116 8 12.7116C7.88009 12.7116 7.78301 12.6786 7.70878 12.6071L0.108494 5.28089C0.0342612 5.20934 0 5.11577 0 5.00018C0 4.88459 0.0342612 4.78001 0.108494 4.68643L0.83369 3.98739C0.902213 3.91584 0.999286 3.88281 1.12491 3.88281C1.25054 3.88281 1.35332 3.91584 1.45039 3.98739L8.00571 10.3063L14.5553 3.98739C14.6524 3.91584 14.7609 3.88281 14.8808 3.88281C15.0007 3.88281 15.0978 3.91584 15.172 3.98739L15.8915 4.68643Z" fill="white"/>
</svg>
