<?xml version="1.0" encoding="UTF-8"?><svg id="Layer_2" xmlns="http://www.w3.org/2000/svg" viewBox="0 0 351.56 123.12"><defs><style>.cls-1{fill:#f9c6cb;}.cls-2{fill:#00939d;}.cls-3{fill:#e63e23;}.cls-4{fill:#fff16c;}.cls-5{fill:#985396;}.cls-6{fill:#ced65c;}.cls-7{fill:#c5ab8a;}.cls-8{fill:#1687a9;}.cls-9{fill:#a1d2cf;}</style></defs><g id="Light_Rail"><g id="LightRail"><g><polygon class="cls-7" points="67.22 42.95 72.69 35.41 72.69 24.28 5.94 6.88 0 15 0 24.2 67.22 42.95"/><polygon class="cls-1" points="72 27.17 67.39 32.6 67.39 38.15 72 32.79 72 27.17"/><path class="cls-1" d="m45.78,36.69v-7.8s.62-1.65,1.9-1.28v9.46l-1.9-.38Z"/><path class="cls-1" d="m47.98,37.22v-9.67s1.39.92,1.46,3.47,0,6.67,0,6.67l-1.46-.48Z"/><path class="cls-1" d="m18.12,29.04l.1-7.08s.62-1.65,1.9-1.28l-.1,8.73-1.9-.38Z"/><path class="cls-1" d="m20.48,29.64v-9.24s1.38.92,1.45,3.47,0,6.25,0,6.25l-1.46-.48Z"/><polygon class="cls-1" points="65.73 33.41 65.73 37.99 59.04 36.13 59.04 31.58 65.73 33.41"/><polygon class="cls-1" points="57.53 31.3 57.53 35.88 50.85 33.99 50.85 29.44 57.53 31.3"/><polygon class="cls-1" points="37.32 25.68 37.32 30.26 30.63 28.4 30.63 23.85 37.32 25.68"/><polygon class="cls-1" points="29.48 23.54 29.48 28.12 22.79 26.26 22.79 21.71 29.48 23.54"/><polygon class="cls-1" points="16.59 20.33 16.59 24.91 9.9 23.36 9.9 18.81 16.59 20.33"/><polygon class="cls-1" points="8.66 18.52 8.66 23.1 1.97 21.24 1.97 16.69 8.66 18.52"/><polygon class="cls-1" points="44.92 27.53 44.92 32.11 38.23 30.25 38.23 25.7 44.92 27.53"/><path class="cls-1" d="m18.62,14.89l10.77-4.34s-7.48-3.38-8.93-7.51l-2.89,2.48-.45-.31L23.05,0l.38.24-2.52,2.31s-.02,3.74,9.41,8.06l-10.68,4.27h-1.02Z"/><path class="cls-1" d="m59.85,23.62l10.77-4.34s-7.48-3.38-8.93-7.51l-2.89,2.48-.45-.31,5.93-5.2.38.24-2.52,2.31s-.02,3.74,9.41,8.06l-10.68,4.27h-1.02Z"/></g><g><polygon class="cls-5" points="136.92 62.79 142.39 55.26 142.39 44.13 75.63 26.72 69.7 34.84 69.7 44.04 136.92 62.79"/><polygon class="cls-9" points="141.7 47.02 137.09 52.44 137.09 57.99 141.7 52.63 141.7 47.02"/><path class="cls-9" d="m115.48,56.54v-7.8s.62-1.65,1.9-1.28v9.46l-1.9-.38Z"/><path class="cls-9" d="m117.68,57.07v-9.67s1.39.92,1.46,3.47c.07,2.55,0,6.67,0,6.67l-1.46-.48Z"/><path class="cls-9" d="m87.81,48.88l.1-7.08s.62-1.65,1.9-1.28l-.1,8.73-1.9-.38Z"/><path class="cls-9" d="m90.18,49.48v-9.24s1.38.92,1.45,3.47,0,6.25,0,6.25l-1.46-.48Z"/><polygon class="cls-9" points="135.42 53.25 135.42 57.83 128.74 55.97 128.74 51.42 135.42 53.25"/><polygon class="cls-9" points="127.23 51.15 127.23 55.73 120.54 53.83 120.54 49.28 127.23 51.15"/><polygon class="cls-9" points="107.02 45.53 107.02 50.11 100.33 48.25 100.33 43.7 107.02 45.53"/><polygon class="cls-9" points="99.18 43.38 99.18 47.96 92.49 46.1 92.49 41.55 99.18 43.38"/><polygon class="cls-9" points="86.29 40.18 86.29 44.76 79.6 43.2 79.6 38.66 86.29 40.18"/><polygon class="cls-9" points="78.36 38.37 78.36 42.95 71.67 41.09 71.67 36.54 78.36 38.37"/><polygon class="cls-9" points="114.62 47.37 114.62 51.95 107.93 50.09 107.93 45.54 114.62 47.37"/><path class="cls-9" d="m88.32,34.73l10.77-4.34s-7.48-3.38-8.93-7.51l-2.89,2.48-.45-.31,5.93-5.2.38.24-2.52,2.31s-.02,3.74,9.41,8.06l-10.68,4.27h-1.02Z"/><path class="cls-9" d="m129.55,43.46l10.77-4.34s-7.48-3.38-8.93-7.51l-2.89,2.48-.45-.31,5.93-5.2.38.24-2.52,2.31s-.02,3.74,9.41,8.06l-10.68,4.27h-1.02Z"/></g><g><polygon class="cls-3" points="206.22 82.46 211.69 74.93 211.69 63.8 144.94 46.39 139 54.51 139 63.71 206.22 82.46"/><polygon class="cls-4" points="211 66.69 206.39 72.11 206.39 77.66 211 72.3 211 66.69"/><path class="cls-4" d="m184.78,76.21v-7.8s.62-1.65,1.9-1.28v9.46l-1.9-.38Z"/><path class="cls-4" d="m186.98,76.74v-9.67s1.39.92,1.46,3.47c.07,2.55,0,6.67,0,6.67l-1.46-.48Z"/><path class="cls-4" d="m157.12,68.55l.1-7.08s.62-1.65,1.9-1.28l-.1,8.73-1.9-.38Z"/><path class="cls-4" d="m159.48,69.15v-9.24s1.38.92,1.45,3.47,0,6.25,0,6.25l-1.46-.48Z"/><polygon class="cls-4" points="204.73 72.92 204.73 77.5 198.04 75.64 198.04 71.09 204.73 72.92"/><polygon class="cls-4" points="196.53 70.82 196.53 75.4 189.85 73.5 189.85 68.95 196.53 70.82"/><polygon class="cls-4" points="176.32 65.2 176.32 69.78 169.63 67.92 169.63 63.37 176.32 65.2"/><polygon class="cls-4" points="168.48 63.05 168.48 67.63 161.79 65.77 161.79 61.22 168.48 63.05"/><polygon class="cls-4" points="155.59 59.84 155.59 64.42 148.9 62.87 148.9 58.32 155.59 59.84"/><polygon class="cls-4" points="147.66 58.04 147.66 62.62 140.97 60.76 140.97 56.21 147.66 58.04"/><polygon class="cls-4" points="183.92 67.04 183.92 71.62 177.23 69.76 177.23 65.21 183.92 67.04"/><path class="cls-4" d="m157.62,54.4l10.77-4.34s-7.48-3.38-8.93-7.51l-2.89,2.48-.45-.31,5.93-5.2.38.24-2.52,2.31s-.02,3.74,9.41,8.06l-10.68,4.27h-1.02Z"/><path class="cls-4" d="m198.85,63.13l10.77-4.34s-7.48-3.38-8.93-7.51l-2.89,2.48-.45-.31,5.93-5.2.38.24-2.52,2.31s-.02,3.74,9.41,8.06l-10.68,4.27h-1.02Z"/></g><g><polygon class="cls-6" points="276.42 102.52 281.89 94.98 281.89 83.85 215.13 66.45 209.2 74.57 209.2 83.77 276.42 102.52"/><polygon class="cls-8" points="281.2 86.75 276.59 92.17 276.59 97.72 281.2 92.36 281.2 86.75"/><path class="cls-8" d="m254.98,96.26v-7.8s.62-1.65,1.9-1.28v9.46l-1.9-.38Z"/><path class="cls-8" d="m257.18,96.79v-9.67s1.39.92,1.46,3.47c.07,2.55,0,6.67,0,6.67l-1.46-.48Z"/><path class="cls-8" d="m227.31,88.61l.1-7.08s.62-1.65,1.9-1.28l-.1,8.73-1.9-.38Z"/><path class="cls-8" d="m229.68,89.21v-9.24s1.38.92,1.45,3.47,0,6.25,0,6.25l-1.46-.48Z"/><polygon class="cls-8" points="274.92 92.98 274.92 97.56 268.24 95.7 268.24 91.15 274.92 92.98"/><polygon class="cls-8" points="266.73 90.88 266.73 95.46 260.04 93.56 260.04 89.01 266.73 90.88"/><polygon class="cls-8" points="246.52 85.25 246.52 89.83 239.83 87.97 239.83 83.42 246.52 85.25"/><polygon class="cls-8" points="238.68 83.11 238.68 87.69 231.99 85.83 231.99 81.28 238.68 83.11"/><polygon class="cls-8" points="225.79 79.9 225.79 84.48 219.1 82.93 219.1 78.38 225.79 79.9"/><polygon class="cls-8" points="217.86 78.1 217.86 82.68 211.17 80.81 211.17 76.27 217.86 78.1"/><polygon class="cls-8" points="254.12 87.1 254.12 91.68 247.43 89.82 247.43 85.27 254.12 87.1"/><path class="cls-8" d="m227.82,74.46l10.77-4.34s-7.48-3.38-8.93-7.51l-2.89,2.48-.45-.31,5.93-5.2.38.24-2.52,2.31s-.02,3.74,9.41,8.06l-10.68,4.27h-1.02Z"/><path class="cls-8" d="m269.05,83.19l10.77-4.34s-7.48-3.38-8.93-7.51l-2.89,2.48-.45-.31,5.93-5.2.38.24-2.52,2.31s-.02,3.74,9.41,8.06l-10.68,4.27h-1.02Z"/></g><g><polygon class="cls-2" points="346.09 123.12 351.56 115.59 351.56 104.46 284.81 85.88 278.87 94.01 278.87 103.2 346.09 123.12"/><polygon class="cls-3" points="350.87 107.4 346.26 112.83 346.26 118.38 350.87 113.02 350.87 107.4"/><path class="cls-3" d="m324.65,115.7v-7.8s.62-1.65,1.9-1.28v9.46l-1.9-.38Z"/><path class="cls-3" d="m326.86,116.23v-9.67s1.39.92,1.46,3.47c.07,2.55,0,6.67,0,6.67l-1.46-.48Z"/><path class="cls-3" d="m296.99,108.04l.1-7.08s.62-1.65,1.9-1.28l-.1,8.73-1.9-.38Z"/><path class="cls-3" d="m299.35,108.65v-9.24s1.38.92,1.45,3.47,0,6.25,0,6.25l-1.46-.48Z"/><polygon class="cls-3" points="344.6 112.41 344.6 117 337.91 115.13 337.91 110.58 344.6 112.41"/><polygon class="cls-3" points="336.4 110.31 336.4 114.89 329.72 113 329.72 108.45 336.4 110.31"/><polygon class="cls-3" points="316.19 104.69 316.19 109.27 309.5 107.41 309.5 102.86 316.19 104.69"/><polygon class="cls-3" points="308.35 102.54 308.35 107.13 301.66 105.26 301.66 100.71 308.35 102.54"/><polygon class="cls-3" points="295.46 99.34 295.46 103.92 288.77 102.37 288.77 97.82 295.46 99.34"/><polygon class="cls-3" points="287.53 97.53 287.53 102.11 280.84 100.25 280.84 95.7 287.53 97.53"/><polygon class="cls-3" points="323.79 106.54 323.79 111.12 317.1 109.26 317.1 104.71 323.79 106.54"/><path class="cls-3" d="m297.49,93.9l10.77-4.34s-7.48-3.38-8.93-7.51l-2.89,2.48-.45-.31,5.93-5.2.38.24-2.52,2.31s-.02,3.74,9.41,8.06l-10.68,4.27h-1.02Z"/><path class="cls-3" d="m338.72,104.34l10.77-4.34s-7.48-3.38-8.93-7.51l-2.89,2.48-.45-.31,5.93-5.2.38.24-2.52,2.31s-.02,3.74,9.41,8.06l-10.68,4.27h-1.02Z"/></g></g></g></svg>